HIERARCHY
ROOT Hips
{
    OFFSET 0.000000 0.000000 0.000000
    CHANNELS 6 Xposition Yposition Zposition Zrotation Xrotation Yrotation
    JOINT Spine
    {
        OFFSET -0.000000 14.517291 0.000000
        CHANNELS 3 Zrotation Xrotation Yrotation
        JOINT Spine1
        {
            OFFSET -0.000000 37.558300 0.000000
            CHANNELS 3 Zrotation Xrotation Yrotation
            JOINT Neck
            {
                OFFSET -0.000000 37.404057 3.400369
                CHANNELS 3 Zrotation Xrotation Yrotation
                JOINT Head
                {
                    OFFSET -0.000000 24.785618 -3.540803
                    CHANNELS 3 Zrotation Xrotation Yrotation
                    End Site
                    {
                        OFFSET -0.000000 35.408028 0.000000
                    }
                }
            }
            JOINT LeftShoulder
            {
                OFFSET 6.992933 33.973492 -0.192664
                CHANNELS 3 Zrotation Xrotation Yrotation
                JOINT LeftArm
                {
                    OFFSET 21.527611 0.000000 0.000000
                    CHANNELS 3 Zrotation Xrotation Yrotation
                    JOINT LeftForeArm
                    {
                        OFFSET 56.353916 0.000000 0.000000
                        CHANNELS 3 Zrotation Xrotation Yrotation
                        JOINT LeftHand
                        {
                            OFFSET 47.774071 0.000000 0.000000
                            CHANNELS 3 Zrotation Xrotation Yrotation
                            End Site
                            {
                                OFFSET 26.556021 0.000000 0.000000
                            }
                        }
                    }
                }
            }
            JOINT RightShoulder
            {
                OFFSET -7.065357 33.973492 -0.192664
                CHANNELS 3 Zrotation Xrotation Yrotation
                JOINT RightArm
                {
                    OFFSET -21.527611 0.000000 0.000000
                    CHANNELS 3 Zrotation Xrotation Yrotation
                    JOINT RightForeArm
                    {
                        OFFSET -56.353916 0.000000 0.000000
                        CHANNELS 3 Zrotation Xrotation Yrotation
                        JOINT RightHand
                        {
                            OFFSET -47.774071 0.000000 0.000000
                            CHANNELS 3 Zrotation Xrotation Yrotation
                            End Site
                            {
                                OFFSET -26.556021 0.000000 0.000000
                            }
                        }
                    }
                }
            }
        }
    }
    JOINT LeftUpLeg
    {
        OFFSET 17.704014 0.000000 0.000000
        CHANNELS 3 Zrotation Xrotation Yrotation
        JOINT LeftLeg
        {
            OFFSET -0.000000 -81.181816 0.000000
            CHANNELS 3 Zrotation Xrotation Yrotation
            JOINT LeftFoot
            {
                OFFSET -0.000000 -62.821102 0.000000
                CHANNELS 3 Zrotation Xrotation Yrotation
                JOINT LeftToeBase
                {
                    OFFSET -0.000000 -11.507608 26.556021
                    CHANNELS 3 Zrotation Xrotation Yrotation
                    End Site
                    {
                        OFFSET -0.000000 0.000000 7.081605
                    }
                }
            }
        }
    }
    JOINT RightUpLeg
    {
        OFFSET -17.704014 0.000000 0.000000
        CHANNELS 3 Zrotation Xrotation Yrotation
        JOINT RightLeg
        {
            OFFSET -0.000000 -81.181816 0.000000
            CHANNELS 3 Zrotation Xrotation Yrotation
            JOINT RightFoot
            {
                OFFSET -0.000000 -62.821102 0.000000
                CHANNELS 3 Zrotation Xrotation Yrotation
                JOINT RightToeBase
                {
                    OFFSET -0.000000 -11.507608 26.556021
                    CHANNELS 3 Zrotation Xrotation Yrotation
                    End Site
                    {
                        OFFSET -0.000000 0.000000 7.081605
                    }
                }
            }
        }
    }
}
MOTION
Frames:    4
Frame Time:    0.008333
7.222825    157.454102    -123.667908    -2.048247    -3.172970    47.698944    -0.279933    -0.924867    -2.953943    -4.604377    3.919964    -0.826614    6.800795    3.230274    -19.221582    13.170393    -1.579534    -18.854666    7.161807    9.268495    -18.813625    -34.684147    22.660442    -47.581974    -8.125550    -8.194886    -117.951172    3.583557    -21.472237    -5.549701    -14.396141    -3.990637    -7.869888    18.509159    -21.503822    49.629787    -10.678333    -10.533922    50.249157    -0.114022    -5.591667    31.592485    7.664154    -10.934763    -16.994690    -12.290104    37.576870    -25.755939    13.379704    -20.583977    42.118324    0.000000    0.000000    0.000000    -5.794484    -23.317471    21.354334    5.199865    23.549368    3.082742    10.187130    0.672753    3.604113    0.000000    0.000000    0.000000    
7.246653    157.423050    -123.697189    -2.047875    -3.209827    47.670826    -0.278820    -0.931288    -2.954662    -4.585557    3.946467    -0.826413    6.815097    3.223470    -19.211288    13.154163    -1.584203    -18.847897    7.141691    9.248740    -18.819901    -34.665588    22.689579    -47.574932    -8.096744    -8.247643    -117.953911    3.524991    -21.474163    -5.539245    -14.386303    -3.972068    -7.870535    18.497080    -21.547386    49.636059    -10.671326    -10.529785    50.244827    -0.136423    -5.597561    31.532717    7.686227    -10.938855    -16.970577    -12.337198    37.654236    -25.750877    13.453300    -20.602797    42.151562    0.000000    0.000000    0.000000    -5.778477    -23.310434    21.351984    5.207346    23.566730    3.087012    10.218088    0.658027    3.594005    0.000000    0.000000    0.000000    
7.274911    157.388855    -123.733627    -2.045200    -3.244145    47.643257    -0.285751    -0.941331    -2.952828    -4.560597    3.972794    -0.825573    6.829779    3.196310    -19.196959    13.126613    -1.548898    -18.844425    7.137495    9.254714    -18.826494    -34.649147    22.701214    -47.594055    -8.094946    -8.272539    -117.948761    3.526243    -21.493277    -5.529951    -14.391713    -3.969661    -7.848588    18.510702    -21.586575    49.610798    -10.660001    -10.515493    50.241241    -0.140818    -5.590151    31.532188    7.696630    -10.944620    -16.949223    -12.377257    37.735790    -25.712786    13.504105    -20.640772    42.148685    0.000000    0.000000    0.000000    -5.772168    -23.305414    21.366976    5.225733    23.580439    3.078666    10.230767    0.636974    3.597651    0.000000    0.000000    0.000000    
7.299631    157.357117    -123.774315    -2.038335    -3.271397    47.599815    -0.301016    -0.956070    -2.942117    -4.532283    4.003756    -0.821759    6.803838    3.171200    -19.195185    13.151608    -1.482553    -18.844797    7.118884    9.250003    -18.823639    -34.629787    22.711973    -47.601845    -8.101286    -8.274454    -117.947266    3.584129    -21.506472    -5.504659    -14.398935    -3.961207    -7.830460    18.519550    -21.600473    49.604630    -10.671724    -10.553889    50.232357    -0.114759    -5.617118    31.522850    7.700204    -10.949092    -16.885977    -12.386200    37.822914    -25.735224    13.546455    -20.679043    42.171310    0.000000    0.000000    0.000000    -5.766347    -23.307858    21.401306    5.246505    23.599899    3.071189    10.230350    0.621622    3.596116    0.000000    0.000000    0.000000    
